# xmcd CD database file generated by OrangeCD 6.0
#
# Track frame offsets:
#	150
#	23410
#	39683
#	60663
#	75724
#	89894
#	105316
#	122043
#	140673
#	161604
#	177016
#	194522
#
# Disc length: 2940 seconds
#
# Revision: 0
# Processed by: cddbd v1.5.2PL0 Copyright (c) Steve Scherf et al.
# Submitted via: OrangeCD 6.0
#
DISCID=9d0b7a0c
DTITLE=Michael Weston King - A New Kind of Loneliness
DYEAR=1900
DGENRE=
TTITLE0=Here's The Plan
TTITLE1=The Last Hurrah
TTITLE2=Saturday's Child
TTITLE3=My Heart Stopped Today
TTITLE4=This Man Can Break So Easily
TTITLE5=Lost
TTITLE6=Only Seven Days
TTITLE7=Rosenkrantz and Kristians Gate (I'm Dead)
TTITLE8=Let The Waves Break
TTITLE9=From Out of The Blue
TTITLE10=Alone Again Naturally
TTITLE11=It Will End In Tears
EXTD=
EXTT0=
EXTT1=
EXTT2=
EXTT3=
EXTT4=
EXTT5=
EXTT6=
EXTT7=
EXTT8=
EXTT9=
EXTT10=
EXTT11=
PLAYORDER=
